<svg xmlns="http://www.w3.org/2000/svg" xmlns:xlink="http://www.w3.org/1999/xlink" version="1.1" x="0px" y="0px" viewBox="0 0 32 40" enable-background="new 0 0 32 32" xml:space="preserve"><g><path d="M5.7495,13.0005c-0.1206,0-0.2437-0.0225-0.3633-0.0688c-0.5146-0.2012-0.7686-0.7808-0.5679-1.2954   C6.6299,6.9976,11.019,4,16,4c0.5522,0,1,0.4478,1,1s-0.4478,1-1,1c-4.1514,0-7.8091,2.498-9.3184,6.3638   C6.5273,12.7588,6.1494,13.0005,5.7495,13.0005z"/><path d="M11.9976,27.25c-0.1211,0-0.2441-0.0225-0.3638-0.0693C6.9966,25.3682,4,20.9795,4,16c0-0.5522,0.4478-1,1-1s1,0.4478,1,1   c0,4.1499,2.4971,7.8076,6.3623,9.3184c0.5142,0.2007,0.7681,0.7808,0.5669,1.2954C12.7749,27.0083,12.3975,27.25,11.9976,27.25z"/><path d="M16,28c-0.5522,0-1-0.4478-1-1s0.4478-1,1-1c4.1504,0,7.8086-2.498,9.3184-6.3638   c0.2012-0.5146,0.7803-0.7681,1.2959-0.5679c0.5137,0.2012,0.7686,0.7813,0.5674,1.2954C25.3691,25.0024,20.9805,28,16,28z"/><path d="M27,17c-0.5527,0-1-0.4478-1-1c0-4.1538-2.5-7.8125-6.3691-9.3208c-0.5146-0.2007-0.7686-0.7803-0.5684-1.2949   c0.2012-0.5146,0.7832-0.7671,1.2949-0.5684C25,6.626,28,11.0161,28,16C28,16.5522,27.5527,17,27,17z"/><path d="M15,8c-0.2559,0-0.5117-0.0977-0.707-0.293c-0.3906-0.3906-0.3906-1.0234,0-1.4141L15.5859,5l-1.293-1.293   c-0.3906-0.3906-0.3906-1.0234,0-1.4141s1.0234-0.3906,1.4141,0l2,2c0.3906,0.3906,0.3906,1.0234,0,1.4141l-2,2   C15.5117,7.9023,15.2559,8,15,8z"/><path d="M7,18c-0.2559,0-0.5117-0.0977-0.707-0.293L5,16.4141l-1.293,1.293c-0.3906,0.3906-1.0234,0.3906-1.4141,0   s-0.3906-1.0234,0-1.4141l2-2c0.3906-0.3906,1.0234-0.3906,1.4141,0l2,2c0.3906,0.3906,0.3906,1.0234,0,1.4141   C7.5117,17.9023,7.2559,18,7,18z"/><path d="M17,30c-0.2559,0-0.5117-0.0977-0.707-0.293l-2-2c-0.3906-0.3906-0.3906-1.0234,0-1.4141l2-2   c0.3906-0.3906,1.0234-0.3906,1.4141,0s0.3906,1.0234,0,1.4141L16.4141,27l1.293,1.293c0.3906,0.3906,0.3906,1.0234,0,1.4141   C17.5117,29.9023,17.2559,30,17,30z"/><path d="M27,18c-0.2559,0-0.5117-0.0977-0.707-0.293l-2-2c-0.3906-0.3906-0.3906-1.0234,0-1.4141s1.0234-0.3906,1.4141,0   L27,15.5859l1.293-1.293c0.3906-0.3906,1.0234-0.3906,1.4141,0s0.3906,1.0234,0,1.4141l-2,2C27.5117,17.9023,27.2559,18,27,18z"/></g><text x="0" y="47" fill="#000000" font-size="5px" font-weight="bold" font-family="'Helvetica Neue', Helvetica, Arial-Unicode, Arial, Sans-serif">Created by M. Oki Orlando</text><text x="0" y="52" fill="#000000" font-size="5px" font-weight="bold" font-family="'Helvetica Neue', Helvetica, Arial-Unicode, Arial, Sans-serif">from the Noun Project</text></svg>