<svg xmlns="http://www.w3.org/2000/svg" xmlns:xlink="http://www.w3.org/1999/xlink" version="1.1" x="0px" y="0px" viewBox="0 0 841.891 744.09875" enable-background="new 0 0 841.891 595.279" xml:space="preserve"><path fill="#000000" d="M471.875,279.299c0-104.381,61.529-162.478,100.906-186.589c10.357-7.578,0.9-22.883-10.328-15.499  c-78.736,51.783-109.547,118.682-111.799,204.532c-31.574,7.468-75.668,31.17-98.47,78.682  c-20.173,42.02-20.736,97.339-20.42,125.852c-11.652-13.014-16.219-17.795-33.822-40.686c-8.114-10.547-27.167,4.199-18.78,14.297  c21.058,25.356,35.163,42.129,55.812,58.969c3.42,2.791,16.034,1.629,18.901-1.182c16.872-16.54,41.773-42.597,54.095-57.998  c8.043-10.052-7.964-22.477-16.3-12.697c-14.945,17.535-22.379,24.854-37.144,39.027c0.004-48.771,6.019-88.545,18.454-115.674  c11.476-25.033,34.965-52.078,69.474-64.844c2.984-1.098,6.061-2.009,9.172-2.809c11.113,90.548,87.562,101.607,114.485,73.459  C603.335,337.222,566.021,279.299,471.875,279.299z M551.492,359.618c-30.713,27.855-77.38-12.145-78.959-59.893  C518.045,293.599,577.902,329.909,551.492,359.618z"/><text x="0" y="610.279" fill="#000000" font-size="5px" font-weight="bold" font-family="'Helvetica Neue', Helvetica, Arial-Unicode, Arial, Sans-serif">Created by JHgram</text><text x="0" y="615.279" fill="#000000" font-size="5px" font-weight="bold" font-family="'Helvetica Neue', Helvetica, Arial-Unicode, Arial, Sans-serif">from the Noun Project</text></svg>