<svg xmlns="http://www.w3.org/2000/svg" version="1.1" viewBox="-5.0 -10.0 110.0 135.0">
 <g>
  <path d="m3.6758 22.238v71.465c0 1.4414 1.1758 2.6172 2.6172 2.6172h87.406c1.3594 0 2.1641-0.89844 2.4648-1.7383 0.30078-0.83984 0.24609-2.043-0.80859-2.9062l-61.586-50.355c-0.023437-0.019531-0.046875-0.035156-0.066406-0.054687l-20.098-16.43c-0.011719-0.007813-0.023438-0.019532-0.035157-0.027344l-5.6211-4.5938c-0.48438-0.39844-1.0586-0.60156-1.6406-0.60156-0.37891 0-0.76562 0.085938-1.1367 0.26172-0.93359 0.44141-1.4961 1.3281-1.4961 2.3633z"/>
  <path d="m14.602 21.871c0 0.73047 0.046876 1.375 0.125 1.9844l19.727 16.129c9.3086-0.83594 16.559-8.7305 16.559-18.113 0-10.031-8.168-18.191-18.207-18.191-10.035 0-18.203 8.1602-18.203 18.191zm13.902-13.102c1.3867-0.45703 2.8359-0.6875 4.3047-0.6875 0.40625 0 0.73438 0.32812 0.73438 0.73438s-0.32812 0.73438-0.73438 0.73438c-1.3125 0-2.6055 0.20703-3.8438 0.61328-0.074219 0.023438-0.15234 0.039063-0.23047 0.039063-0.30859 0-0.59766-0.19531-0.69922-0.50391-0.12891-0.38672 0.082032-0.80078 0.46875-0.92969zm-3.7539 1.918c0.32812-0.23828 0.78906-0.16406 1.0273 0.16406 0.23828 0.32813 0.16406 0.78906-0.16406 1.0273-3.207 2.3164-5.1211 6.0508-5.1211 9.9883 0 0.40625-0.32813 0.73437-0.73438 0.73437s-0.73437-0.32812-0.73437-0.73437c-0.003907-4.4062 2.1406-8.5859 5.7266-11.18z"/>
  <path d="m86.793 64.312-5.125-18.688c-0.18359-0.66016-0.6875-1.1602-1.3477-1.332-0.66016-0.17578-1.3477 0.007812-1.832 0.49219l-2.0391 2.0391c-0.27734 0.27734-0.76562 0.27734-1.0391 0l-12.938-12.934c-0.41406-0.41797-0.96094-0.625-1.5078-0.625s-1.0938 0.20703-1.5078 0.625l-5.4297 5.4258c-0.40234 0.40234-0.625 0.9375-0.625 1.5117 0 0.57031 0.22266 1.1055 0.625 1.5039l12.938 12.938c0.28906 0.28906 0.28906 0.75391 0 1.0391l-2.0391 2.0391c-0.48438 0.48438-0.66797 1.168-0.49219 1.832 0.17578 0.66016 0.67188 1.168 1.3359 1.3516l18.684 5.125c0.66797 0.18359 1.3633 0 1.8516-0.48828 0.49219-0.49219 0.67187-1.1836 0.48828-1.8555z"/>
 </g>
<text x="0.0" y="117.5" font-size="5.0" font-weight="bold" font-family="Arbeit Regular, Helvetica, Arial-Unicode, Arial, Sans-serif" fill="#000000">Created by VectorsLab</text><text x="0.0" y="122.5" font-size="5.0" font-weight="bold" font-family="Arbeit Regular, Helvetica, Arial-Unicode, Arial, Sans-serif" fill="#000000">from Noun Project</text></svg>