<?xml version="1.0" encoding="iso-8859-1"?>
<!-- Uploaded to: SVG Repo, www.svgrepo.com, Generator: SVG Repo Mixer Tools -->
<svg fill="#000000" height="800px" width="800px" version="1.1" id="Layer_1" xmlns="http://www.w3.org/2000/svg" xmlns:xlink="http://www.w3.org/1999/xlink" 
	 viewBox="0 0 511.999 511.999" xml:space="preserve">
<g>
	<g>
		<path d="M255.999,0C114.509,0,0,114.498,0,255.999C0,397.49,114.498,511.999,255.999,511.999
			c141.491,0,255.999-114.498,255.999-255.999C512,114.509,397.502,0,255.999,0z M255.999,33.357
			c35.309,0,68.718,8.276,98.409,22.968c-16.473,10.017-31.95,21.461-51.834,31.687c-53.237,27.38-90.214,31.779-176.148-12.958
			C162.95,48.823,207.701,33.357,255.999,33.357z M98.962,98.327c84.639,42.779,134.211,62.885,218.867,19.348
			c28.818-14.82,48.066-31.125,69.458-41.371c52.384,38.377,87.448,99.062,91.046,167.949
			c-56.658-3.346-108.598-24.502-147.95-37.338c-44.034-14.362-155.99-41.618-244.356,15.328
			c-17.722,11.42-35.282,19.276-52.427,23.502C36.221,188.274,60.723,136.414,98.962,98.327z M255.999,478.643
			c-32.552,0-63.492-7.024-91.39-19.633c26.594-9.948,58.06-16.739,88.402-11.213c36.607,6.668,60.766,11.729,84.378,15.442
			C312.166,473.18,284.709,478.643,255.999,478.643z M387.662,435.422c-42.078-2.908-68.184-9.42-128.673-20.442
			c-47.822-8.712-96.046,6.809-130.733,23.263c-23.126-16.259-43.027-36.803-58.55-60.469
			c27.856-12.428,66.999-21.768,113.036-10.257c105.838,26.46,134.371,5.684,203.761-22.401
			c19.727-7.984,46.006-10.611,76.762-7.801C447.749,376.731,421.291,410.678,387.662,435.422z M473.242,304.8
			c-39.357-4.485-72.703-1.351-99.252,9.395c-70.164,28.401-88.892,44.527-183.155,20.96
			c-56.469-14.119-104.099-2.024-137.333,13.337c-9.788-21.345-16.298-44.491-18.881-68.795
			c23.006-4.632,46.305-14.482,69.478-29.417c78.474-50.571,185.126-21.705,215.943-11.654
			c40.757,13.295,95.43,35.638,157.549,39.009C476.695,286.867,475.233,295.932,473.242,304.8z"/>
	</g>
</g>
</svg>