<svg xmlns="http://www.w3.org/2000/svg" viewBox="0 0 24 30" fill="none" x="0px" y="0px"><path fill-rule="evenodd" clip-rule="evenodd" d="M19.3599 7.75077C17.0131 3.68603 11.8155 2.29334 7.75077 4.64012C3.68603 6.98691 2.29334 12.1845 4.64012 16.2492C6.98691 20.314 12.1845 21.7067 16.2492 19.3599C20.314 17.0131 21.7067 11.8155 19.3599 7.75077ZM7.00077 3.34109C11.783 0.580089 17.8979 2.21859 20.6589 7.00077C23.4199 11.783 21.7814 17.8979 16.9992 20.6589C12.217 23.4199 6.10208 21.7814 3.34109 16.9992C0.580089 12.217 2.21859 6.10208 7.00077 3.34109Z" fill="black"/><path fill-rule="evenodd" clip-rule="evenodd" d="M6.88619 10.7263L3.3518 12.7669C2.99308 12.974 2.53439 12.8511 2.32728 12.4923C2.12018 12.1336 2.24308 11.6749 2.6018 11.4678L6.13619 9.42725L6.88619 10.7263Z" fill="black"/><path fill-rule="evenodd" clip-rule="evenodd" d="M12.3038 5.86632L16.8824 3.2229L17.6324 4.52194L13.0538 7.16536C12.6951 7.37247 12.2364 7.24956 12.0293 6.89084C11.8222 6.53212 11.9451 6.07343 12.3038 5.86632Z" fill="black"/><path fill-rule="evenodd" clip-rule="evenodd" d="M4.13217 15.7604L19.1194 7.10754L19.8694 8.40658L4.88217 17.0594C4.52345 17.2666 4.06475 17.1436 3.85765 16.7849C3.65054 16.4262 3.77345 15.9675 4.13217 15.7604Z" fill="black"/><path fill-rule="evenodd" clip-rule="evenodd" d="M12.176 17.2472C12.3831 17.6059 12.2602 18.0646 11.9015 18.2717L8.18074 20.4199C7.82202 20.627 7.36333 20.5041 7.15622 20.1453C6.94912 19.7866 7.07202 19.3279 7.43074 19.1208L11.1515 16.9727C11.5102 16.7656 11.9689 16.8885 12.176 17.2472Z" fill="black"/><path fill-rule="evenodd" clip-rule="evenodd" d="M21.4296 11.9044C21.6367 12.2631 21.5138 12.7218 21.1551 12.9289L17.2506 15.1832L16.5006 13.8842L20.4051 11.6299C20.7638 11.4228 21.2225 11.5457 21.4296 11.9044Z" fill="black"/><path fill-rule="evenodd" clip-rule="evenodd" d="M7.41844 8.11109C6.87245 8.42631 6.68538 9.12446 7.00061 9.67044C7.31583 10.2164 8.01398 10.4035 8.55997 10.0883C9.10595 9.77305 9.29302 9.0749 8.9778 8.52891C8.66257 7.98293 7.96442 7.79586 7.41844 8.11109ZM5.70157 10.4204C4.97213 9.15702 5.40501 7.54149 6.66844 6.81205C7.93186 6.08261 9.5474 6.51549 10.2768 7.77891C11.0063 9.04234 10.5734 10.6579 9.30997 11.3873C8.04654 12.1168 6.43101 11.6839 5.70157 10.4204Z" fill="black"/><path fill-rule="evenodd" clip-rule="evenodd" d="M15.4819 14.4273C15.0583 14.6718 14.9132 15.2135 15.1577 15.637C15.4023 16.0606 15.9439 16.2057 16.3674 15.9612C16.791 15.7166 16.9361 15.175 16.6916 14.7514C16.447 14.3279 15.9054 14.1827 15.4819 14.4273ZM13.8587 16.387C13.1999 15.246 13.5908 13.787 14.7319 13.1283C15.8729 12.4695 17.3319 12.8604 17.9906 14.0014C18.6494 15.1424 18.2585 16.6014 17.1174 17.2602C15.9764 17.919 14.5174 17.528 13.8587 16.387Z" fill="black"/><text x="0" y="39" fill="#000000" font-size="5px" font-weight="bold" font-family="'Helvetica Neue', Helvetica, Arial-Unicode, Arial, Sans-serif">Created by Assetwave</text><text x="0" y="44" fill="#000000" font-size="5px" font-weight="bold" font-family="'Helvetica Neue', Helvetica, Arial-Unicode, Arial, Sans-serif">from the Noun Project</text></svg>