<svg xmlns="http://www.w3.org/2000/svg" version="1.1" viewBox="-5.0 -10.0 110.0 135.0">
 <path d="m21.426 18.496h57.188c2.5508 0 4.6172 2.5508 4.6172 4.6172 0 2.5508-2.0664 4.6172-4.6172 4.6172h-57.188c-2.5508 0-4.6172-2.5508-4.6172-4.6172 0-2.5508 2.0664-4.6172 4.6172-4.6172z"/>
 <path d="m47.152 27.734h5.7383v40.871h-5.7383z"/>
 <path d="m56.785 74.738c0 3.7344-3.0273 6.7656-6.7656 6.7656-3.7344 0-6.7617-3.0312-6.7617-6.7656 0-3.7383 3.0273-6.7656 6.7617-6.7656 3.7383 0 6.7656 3.0273 6.7656 6.7656"/>
 <path d="m47.406 26.32-28.336 28.34 4.0586 4.0586 25.438-25.441z"/>
 <path d="m23.531 61.02c0 3.7383-3.0312 6.7656-6.7656 6.7656-3.7383 0-6.7656-3.0273-6.7656-6.7656 0-3.7344 3.0273-6.7617 6.7656-6.7617 3.7344 0 6.7656 3.0273 6.7656 6.7617"/>
 <path d="m51.477 33.219 25.395 25.395 4.0586-4.0547-28.234-28.238z"/>
 <path d="m90 60.922c0 3.7344-3.0273 6.7617-6.7656 6.7617-3.7344 0-6.7656-3.0273-6.7656-6.7617 0-3.7383 3.0312-6.7656 6.7656-6.7656 3.7383 0 6.7656 3.0273 6.7656 6.7656"/>
<text x="0.0" y="117.5" font-size="5.0" font-weight="bold" font-family="Arbeit Regular, Helvetica, Arial-Unicode, Arial, Sans-serif" fill="#000000">Created by IYIKON</text><text x="0.0" y="122.5" font-size="5.0" font-weight="bold" font-family="Arbeit Regular, Helvetica, Arial-Unicode, Arial, Sans-serif" fill="#000000">from Noun Project</text></svg>