<svg xmlns="http://www.w3.org/2000/svg" viewBox="0 0 100 125" x="0px" y="0px"><path d="M89.86,38.49l-13.89,1.31,4.05-10.02c.19-.48,.13-1.03-.18-1.44-.3-.42-.81-.66-1.32-.61l-12.97,.91-3.14-12.61c-.12-.5-.5-.9-.99-1.06-.49-.16-1.03-.05-1.43,.28l-9.96,8.36-9.96-8.36c-.4-.33-.94-.44-1.43-.28-.49,.16-.87,.56-.99,1.06l-3.14,12.61-12.97-.91c-.51-.04-1.01,.2-1.32,.61-.3,.42-.37,.96-.18,1.44l4.05,10.03-13.99-1.32c-.42-.04-.84,.1-1.15,.38-.31,.28-.49,.69-.49,1.11v19.86c0,.42,.18,.83,.49,1.11,.31,.28,.73,.42,1.15,.38l14.06-1.33-4.12,10.2c-.19,.48-.13,1.03,.18,1.44,.3,.42,.8,.65,1.32,.61l12.97-.91,3.14,12.61c.12,.5,.5,.9,.99,1.06,.49,.16,1.03,.05,1.43-.28l9.96-8.36,9.96,8.36c.27,.23,.62,.35,.96,.35,.16,0,.31-.02,.46-.07,.49-.16,.87-.56,.99-1.06l3.14-12.61,12.97,.91c.52,.04,1.01-.2,1.32-.61,.3-.42,.37-.96,.18-1.44l-4.12-10.19,13.96,1.32c.42,.04,.84-.1,1.15-.38s.49-.69,.49-1.11v-19.86c0-.42-.18-.83-.49-1.11-.31-.28-.73-.43-1.15-.38Zm-1.36,19.71l-21.32-2.02c-.43-.04-.86,.11-1.18,.41-.31,.3-.48,.72-.46,1.16l.18,3.66-13.4-11.5,13.4-11.5-.18,3.67c-.02,.43,.15,.86,.46,1.16,.31,.3,.74,.45,1.18,.41l21.32-2.02v16.57ZM11.47,41.64l21.32,2.02c.43,.04,.86-.11,1.18-.41,.31-.3,.48-.72,.46-1.16l-.18-3.67,13.4,11.5-13.4,11.5,.18-3.66c.02-.44-.15-.86-.46-1.16-.28-.27-.65-.42-1.04-.42-.05,0-.09,0-.14,0l-21.32,2.02v-16.57Z"/><text x="0" y="115" fill="#000000" font-size="5px" font-weight="bold" font-family="'Helvetica Neue', Helvetica, Arial-Unicode, Arial, Sans-serif">Created by Lars Meiertoberens</text><text x="0" y="120" fill="#000000" font-size="5px" font-weight="bold" font-family="'Helvetica Neue', Helvetica, Arial-Unicode, Arial, Sans-serif">from the Noun Project</text></svg>