<svg xmlns="http://www.w3.org/2000/svg" version="1.1" viewBox="-5.0 -10.0 110.0 135.0">
 <path d="m90 12.207v4.1992h-80v-4.1992zm-14.891 58.746c0 5.4531-4.4141 9.8711-9.8281 9.8711-5.4531 0-9.8711-4.4141-9.8711-9.8711 0-5.4102 4.4141-9.8281 9.8711-9.8281 5.4102 0 9.8281 4.418 9.8281 9.8281zm-3.9844 0c0-3.2031-2.6406-5.8438-5.8867-5.8438-3.2031 0-5.8438 2.6406-5.8438 5.8438 0 3.2461 2.6406 5.8867 5.8438 5.8867 3.2461 0 5.8867-2.6406 5.8867-5.8867zm3.9844-6.8828c1.3438 1.9492 2.1641 4.3281 2.1641 6.8828v-52.383h-2.1641zm-19.699-17.621c0 2.5117-0.77734 4.8906-2.1641 6.8398v17.664c0-2.5117 0.77734-4.8906 2.1641-6.8398zm-21.859 21.777v-14.895c-1.3438-1.9492-2.1641-4.3281-2.1641-6.8828v21.777c0.39062-0.042968 0.73438-0.042968 1.082-0.042968 0.34375 0 0.69141 0 1.082 0.042968zm0 4.1094c0 0.60547-0.51953 1.082-1.082 1.082-0.60547 0-1.082-0.47656-1.082-1.082v-1.9453c-5.1523 0.12891-8.3555 1.3008-8.7461 1.9492 0.43359 0.73438 4.0703 1.9922 9.8281 1.9922 5.8008 0 9.3945-1.2969 9.8281-1.9922v-0.042969c-0.30469-0.5625-3.5078-1.7734-8.7461-1.9062zm-10.953 2.5547v10.91c0.30469 0.64844 3.9414 1.9922 9.8711 1.9922 5.8867 0 9.5234-1.3438 9.8281-2.0781v-10.824c-2.5117 1.2109-6.8398 1.6016-9.8281 1.6016s-7.3164-0.38672-9.8711-1.6016zm18.312-38.699 0.73438 5.8867 0.042969 0.17188 0.042969 0.30469 0.34766 2.8125h2.5977l0.34766-2.7695 0.042968-0.39062 0.77734-5.9727 0.085938-0.43359 0.43359-3.5508h-5.9297zm-0.82422 10.387-0.17188-1.2539c-0.17187 0.34766-0.21484 0.73438-0.21484 1.125 0 2.0352 1.6445 3.6797 3.6797 3.6797s3.7227-1.6445 3.7227-3.6797c0-0.39062-0.042968-0.77734-0.21484-1.125l-0.17188 1.2539c-0.085938 0.5625-0.51953 0.95312-1.082 0.95312h-4.5039c-0.52344 0-1-0.38672-1.043-0.95312zm7.75-8.9141-0.5625 4.4609c1.2539 1.0391 1.9922 2.6406 1.9922 4.3281 0 3.2461-2.6406 5.8438-5.8867 5.8438-3.2031 0-5.8438-2.5977-5.8438-5.8438 0-1.6875 0.73438-3.2891 1.9922-4.3711l-0.5625-4.4141c-3.2891 1.6445-5.4102 5.0234-5.4102 8.7891 0 5.4531 4.4141 9.8711 9.8281 9.8711 5.4531 0 9.8711-4.4141 9.8711-9.8711-0.007812-3.7305-2.1289-7.1055-5.418-8.793zm-5.543-19.094v11.516h2.1641v-11.516zm22.945 48.703c-2.0352 0-3.6797 1.6445-3.6797 3.6797s1.6445 3.7227 3.6797 3.7227c2.0352 0 3.7227-1.6875 3.7227-3.7227s-1.6875-3.6797-3.7227-3.6797z"/>
<text x="0.0" y="117.5" font-size="5.0" font-weight="bold" font-family="Arbeit Regular, Helvetica, Arial-Unicode, Arial, Sans-serif" fill="#000000">Created by ARIPATUT DASUKI</text><text x="0.0" y="122.5" font-size="5.0" font-weight="bold" font-family="Arbeit Regular, Helvetica, Arial-Unicode, Arial, Sans-serif" fill="#000000">from Noun Project</text></svg>