<svg xmlns="http://www.w3.org/2000/svg" version="1.1" viewBox="-5.0 -10.0 110.0 135.0">
 <path d="m50 27.133c5.2695 0 10.043 2.1406 13.508 5.5977l0.007813 0.007812c3.457 3.4609 5.5938 8.2344 5.5938 13.5 0 5.2773-2.1406 10.055-5.5977 13.512l-0.097657 0.089844c-3.4531 3.4062-8.1914 5.5078-13.414 5.5078-5.2773 0-10.055-2.1406-13.512-5.5977-3.4609-3.4609-5.5977-8.2344-5.5977-13.512 0-5.2695 2.1406-10.047 5.6016-13.508 3.457-3.4609 8.2305-5.6016 13.508-5.6016zm-3.1758-23.793h6.3516c0.96484 0 1.75 0.78125 1.75 1.75v14.273c6.1484 1.1211 11.586 4.3047 15.562 8.8086 4.1836 4.7422 6.7539 10.945 6.8359 17.734v33.91c0.78125 0.26953 1.4805 0.71875 2.0508 1.2852 0.98047 0.98438 1.5898 2.332 1.5898 3.8086v6.3555c0 1.4805-0.60938 2.832-1.5859 3.8086-0.97656 0.97656-2.3242 1.5859-3.8086 1.5859-1.4805 0-2.8242-0.60547-3.8047-1.5859-0.98438-0.98828-1.5898-2.3359-1.5898-3.8086v-6.3555c0-1.4805 0.60547-2.832 1.5859-3.8086 0.57422-0.57422 1.2734-1.0195 2.0586-1.2891v-20.184c-1.2266 2.1797-2.7461 4.1758-4.5039 5.9297-4.9453 4.9453-11.773 8.0039-19.32 8.0039-7.5391 0-14.371-3.0586-19.316-8.0039-1.7578-1.7578-3.2773-3.7578-4.5078-5.9375v20.191c0.78125 0.27344 1.4805 0.71875 2.0547 1.2852 0.98047 0.98438 1.5898 2.332 1.5898 3.8086v6.3555c0 1.4805-0.60938 2.832-1.5859 3.8086-0.97656 0.97656-2.3242 1.5859-3.8086 1.5859-1.4805 0-2.8242-0.60547-3.8047-1.5859-0.98438-0.98828-1.5898-2.3359-1.5898-3.8086v-6.3555c0-1.4805 0.60547-2.832 1.5859-3.8086 0.57422-0.57422 1.2734-1.0156 2.0586-1.2891v-33.906c0.085937-6.793 2.6484-12.992 6.8359-17.734 3.9766-4.5039 9.4102-7.6875 15.562-8.8047v-14.27c0-0.96484 0.78125-1.75 1.75-1.75zm7.8125 19.527c-0.25 0.69141-0.64844 1.3125-1.1562 1.8203-0.89062 0.89844-2.125 1.4531-3.4766 1.4531-1.3555 0-2.5898-0.55469-3.4805-1.4453l-0.10156-0.10937c-0.46094-0.48828-0.82422-1.0742-1.0547-1.7148-5.2305 1.0273-9.8477 3.7695-13.238 7.6094-3.6406 4.125-5.875 9.5352-5.9453 15.473v0.44531c0.042968 6.5234 2.6992 12.422 6.9727 16.695 4.3086 4.3086 10.266 6.9766 16.852 6.9766 6.5781 0 12.539-2.668 16.848-6.9766 4.2773-4.2773 6.9336-10.172 6.9766-16.695v-0.44531c-0.070312-5.9336-2.3086-11.344-5.9453-15.469-3.3945-3.8438-8.0078-6.582-13.238-7.6133zm-3.2148-16.027h-2.8516v14.375c0 0.36719 0.13672 0.69922 0.35938 0.94922l0.058593 0.054688c0.25781 0.25781 0.61328 0.41797 1.0039 0.41797 0.39453 0 0.75-0.16016 1.0078-0.41797 0.25781-0.25391 0.41797-0.61328 0.41797-1.0039v-14.375zm24.105 76.184c-0.50391 0.011718-0.96094 0.22656-1.2891 0.55469-0.34375 0.34375-0.55469 0.81641-0.55469 1.3359v6.3555c0 0.52344 0.21094 0.99609 0.55078 1.3359 0.34375 0.34375 0.82031 0.55469 1.3398 0.55469 0.52344 0 0.99609-0.21484 1.3398-0.55469 0.34375-0.34375 0.55469-0.81641 0.55469-1.3359v-6.3555c0-0.52344-0.21484-0.99609-0.55078-1.3398-0.32812-0.32812-0.78906-0.53906-1.293-0.55078zm-51.148 0c-0.50391 0.011718-0.95703 0.22266-1.2891 0.55469-0.34375 0.34375-0.55469 0.81641-0.55469 1.3359v6.3555c0 0.52344 0.21094 0.99609 0.55078 1.3359 0.34375 0.34375 0.82031 0.55469 1.3398 0.55469 0.52344 0 0.99609-0.21484 1.3398-0.55469 0.34375-0.34375 0.55469-0.81641 0.55469-1.3359v-6.3555c0-0.52344-0.21484-0.99609-0.55078-1.3398-0.32812-0.32812-0.78906-0.53906-1.293-0.55078zm25.621-44.266c2.0586 0 3.9258 0.83984 5.2812 2.1914l0.007812 0.007812c1.3516 1.3555 2.1914 3.2266 2.1914 5.2812 0 2.0586-0.83984 3.9258-2.1914 5.2852l-0.007812 0.007812c-1.3555 1.3516-3.2266 2.1914-5.2812 2.1914-2.0586 0-3.9258-0.83984-5.2852-2.1914l-0.007813-0.007812c-1.3516-1.3555-2.1914-3.2266-2.1914-5.2812 0-2.0586 0.83984-3.9258 2.1914-5.2812l0.007813-0.007813c1.3555-1.3516 3.2266-2.1914 5.2812-2.1914zm2.8203 4.6602c-0.71875-0.71875-1.7148-1.1602-2.8203-1.1602s-2.1016 0.44531-2.8164 1.1602c-0.72266 0.71875-1.168 1.7148-1.168 2.8242 0 1.1055 0.44531 2.1016 1.1602 2.8164 0.71875 0.72266 1.7188 1.168 2.8242 1.168s2.1016-0.44531 2.8164-1.1602c0.72266-0.71875 1.168-1.7188 1.168-2.8242 0-1.1055-0.44531-2.1016-1.1641-2.8203zm8.2188-8.2188c-2.8203-2.8242-6.7227-4.5664-11.039-4.5664-4.3125 0-8.2188 1.75-11.039 4.5703-2.8242 2.8164-4.5703 6.7227-4.5703 11.039 0 4.3125 1.75 8.2188 4.5703 11.039 2.8242 2.8242 6.7305 4.5703 11.039 4.5703 4.2773 0 8.1523-1.7148 10.961-4.4922l0.074218-0.082031c2.8242-2.8242 4.5703-6.7305 4.5703-11.039 0-4.3164-1.7461-8.2188-4.5703-11.039z"/>
<text x="0.0" y="117.5" font-size="5.0" font-weight="bold" font-family="Arbeit Regular, Helvetica, Arial-Unicode, Arial, Sans-serif" fill="#000000">Created by Lusi Astianah</text><text x="0.0" y="122.5" font-size="5.0" font-weight="bold" font-family="Arbeit Regular, Helvetica, Arial-Unicode, Arial, Sans-serif" fill="#000000">from Noun Project</text></svg>