<svg xmlns="http://www.w3.org/2000/svg" xmlns:xlink="http://www.w3.org/1999/xlink" xml:space="preserve" style="shape-rendering:geometricPrecision;text-rendering:geometricPrecision;image-rendering:optimizeQuality;" viewBox="0 0 173.397 216.74624999999997" x="0px" y="0px" fill-rule="evenodd" clip-rule="evenodd"><defs><style type="text/css">
   
    .fil1 {fill:none}
    .fil0 {fill:black}
   
  </style></defs><g><g><path class="fil0" d="M117.977 66.3022c-0.3257,0 -0.6581,-0.0245 -0.9903,-0.0769 -0.7342,-0.1084 -1.2379,-0.7937 -1.1294,-1.528 0.1119,-0.731 0.7972,-1.2343 1.5281,-1.126 1.018,0.1538 1.9686,-0.0978 2.6749,-0.7063 0.7239,-0.6225 1.1224,-1.5525 1.1224,-2.6225 0.0003,-2.3361 -1.9232,-4.5981 -4.196,-4.9443l-60.9746 -9.2278c-1.018,-0.1574 -1.9694,0.0945 -2.6757,0.7028 -0.7238,0.6256 -1.1224,1.5561 -1.1224,2.6225 0.0005,2.3358 1.9232,4.6017 4.1995,4.9444 0.7315,0.1116 1.2344,0.7972 1.1259,1.5316 -0.1119,0.7306 -0.7937,1.2343 -1.528,1.1259 -3.5766,-0.542 -6.4828,-3.9513 -6.4828,-7.6019 0.0006,-1.8603 0.7307,-3.5141 2.056,-4.6576 1.3112,-1.1259 3.0247,-1.598 4.8289,-1.3252l60.9719 9.2313c3.5774,0.5416 6.4828,3.9512 6.4828,7.5983 0,1.8635 -0.7308,3.5176 -2.0561,4.6576 -1.0665,0.9194 -2.4022,1.4021 -3.8351,1.4021z"/><path class="fil0" d="M117.977 77.2295c-0.3257,0 -0.6581,-0.0246 -0.9903,-0.077 -0.7342,-0.1088 -1.2379,-0.7938 -1.1294,-1.528 0.1119,-0.7309 0.7972,-1.2378 1.5281,-1.126 1.018,0.1535 1.9686,-0.0979 2.6749,-0.7063 0.7239,-0.6224 1.1224,-1.5526 1.1224,-2.6225 0.0003,-2.3361 -1.9232,-4.5982 -4.196,-4.9444l-60.9746 -9.228c-1.018,-0.1574 -1.9694,0.0947 -2.6757,0.7031 -0.7238,0.6256 -1.1224,1.556 -1.1224,2.6225 0.0005,2.3354 1.9232,4.6017 4.1961,4.9443 0.7349,0.1117 1.2378,0.7972 1.1293,1.5316 -0.1119,0.7307 -0.7973,1.2343 -1.528,1.1259 -3.5766,-0.5423 -6.4828,-3.9513 -6.4828,-7.6018 0.0006,-1.8603 0.7307,-3.5142 2.056,-4.6576 1.3112,-1.1263 3.0247,-1.5944 4.8289,-1.3252l60.9719 9.2309c3.5774,0.5421 6.4828,3.9516 6.4828,7.5987 0,1.8636 -0.7308,3.5177 -2.0561,4.6575 -1.0665,0.9196 -2.4022,1.4023 -3.8351,1.4023z"/><path class="fil0" d="M117.977 88.1563c-0.3257,0 -0.6581,-0.0242 -0.9938,-0.0766 -0.7307,-0.1087 -1.2344,-0.7938 -1.1259,-1.5281 0.1119,-0.7344 0.7937,-1.2343 1.5281,-1.1259 1.018,0.1536 1.9686,-0.0979 2.6749,-0.7063 0.7239,-0.6228 1.1224,-1.5526 1.1224,-2.6225 0.0003,-2.336 -1.9232,-4.5982 -4.196,-4.9444l-60.9746 -9.228c-1.018,-0.1574 -1.9694,0.0947 -2.6757,0.7031 -0.7238,0.6257 -1.1224,1.5559 -1.1224,2.6225 0.0005,2.3355 1.9232,4.6016 4.1961,4.9443 0.7349,0.1118 1.2378,0.7973 1.1293,1.5316 -0.1119,0.7308 -0.7973,1.2343 -1.528,1.1259 -3.5766,-0.5422 -6.4828,-3.9513 -6.4828,-7.6018 0.0006,-1.8603 0.7307,-3.5142 2.056,-4.6577 1.3112,-1.1261 3.0247,-1.5978 4.8255,-1.3252l60.9753 9.2311c3.5774,0.542 6.4828,3.9514 6.4828,7.5986 0,1.8636 -0.7308,3.5176 -2.0561,4.661 -1.0665,0.9161 -2.4022,1.3987 -3.8351,1.3984z"/><path class="fil0" d="M117.977 99.0836c-0.3257,0 -0.6581,-0.0243 -0.9938,-0.0767 -0.7307,-0.1087 -1.2344,-0.7939 -1.1259,-1.5281 0.1119,-0.7347 0.7937,-1.2378 1.5281,-1.1259 1.018,0.1536 1.9686,-0.098 2.6749,-0.7063 0.7239,-0.6227 1.1224,-1.5526 1.1224,-2.6226 0.0003,-2.3359 -1.9232,-4.5982 -4.1995,-4.9443l-60.9711 -9.2279c-1.018,-0.1539 -1.9694,0.0945 -2.6757,0.7029 -0.7238,0.6258 -1.1224,1.5561 -1.1224,2.6226 0.0005,2.3355 1.9232,4.6016 4.1961,4.9442 0.7349,0.1119 1.2378,0.7974 1.1293,1.5282 -0.1119,0.7339 -0.7973,1.2378 -1.528,1.1293 -3.5766,-0.5421 -6.4828,-3.9512 -6.4828,-7.6017 0.0006,-1.8607 0.7307,-3.5143 2.056,-4.6577 1.3112,-1.1261 3.0247,-1.5979 4.8255,-1.3252l60.9753 9.2311c3.5774,0.5421 6.4828,3.9514 6.4828,7.5985 0,1.8634 -0.7308,3.5177 -2.0561,4.6611 -1.0665,0.9158 -2.4022,1.3987 -3.8351,1.3985z"/><path class="fil0" d="M117.977 110.011c-0.3257,0 -0.6581,-0.0244 -0.9903,-0.0768 -0.7342,-0.1085 -1.2379,-0.7937 -1.1294,-1.5281 0.1119,-0.731 0.7972,-1.2343 1.5281,-1.126 1.0212,0.1539 1.9686,-0.0978 2.6749,-0.7062 0.7239,-0.6226 1.1224,-1.5526 1.1224,-2.6226 0.0003,-2.3358 -1.9232,-4.5981 -4.1995,-4.9442l-60.9711 -9.2279c-1.018,-0.1574 -1.9694,0.0945 -2.6757,0.7029 -0.7238,0.6255 -1.1224,1.556 -1.1224,2.6226 0.0005,2.3356 1.9232,4.6015 4.1961,4.9442 0.7349,0.1116 1.2378,0.7972 1.1293,1.5281 -0.1119,0.7341 -0.7973,1.2378 -1.528,1.1295 -3.5766,-0.5421 -6.4828,-3.9513 -6.4828,-7.6018 0.0006,-1.8606 0.7307,-3.5143 2.056,-4.6576 1.3112,-1.1261 3.0247,-1.5946 4.8255,-1.3254l60.9753 9.2313c3.5774,0.542 6.4828,3.9513 6.4828,7.5983 0,1.8636 -0.7308,3.5176 -2.0561,4.6612 -1.0665,0.9158 -2.4022,1.3986 -3.8351,1.3985z"/><path class="fil0" d="M117.977 120.938c-0.3257,0 -0.6581,-0.0245 -0.9903,-0.0768 -0.7342,-0.1088 -1.2379,-0.7938 -1.1294,-1.5281 0.1119,-0.7309 0.7972,-1.2378 1.5281,-1.126 1.0212,0.1539 1.9686,-0.0978 2.6749,-0.7062 0.7239,-0.6225 1.1224,-1.5526 1.1224,-2.6226 0.0003,-2.3362 -1.9232,-4.5981 -4.196,-4.9443l-60.9746 -9.2277c-1.018,-0.1543 -1.9694,0.0943 -2.6757,0.7027 -0.7238,0.6257 -1.1224,1.5561 -1.1224,2.6226 0.0005,2.3357 1.9232,4.6016 4.1961,4.9443 0.7349,0.1117 1.2378,0.7972 1.1293,1.5315 -0.1119,0.7307 -0.7973,1.2344 -1.528,1.126 -3.5766,-0.5424 -6.4828,-3.9512 -6.4828,-7.6018 0.0006,-1.8605 0.7307,-3.5143 2.056,-4.6576 1.3112,-1.126 3.0247,-1.5981 4.8255,-1.3253l60.9753 9.2312c3.5774,0.5417 6.4828,3.9514 6.4828,7.5984 0,1.8636 -0.7308,3.5177 -2.0561,4.6611 -1.0665,0.916 -2.4022,1.3986 -3.8351,1.3986z"/><path class="fil0" d="M117.977 131.865c-0.3257,0 -0.6581,-0.0242 -0.9903,-0.0766 -0.7342,-0.1087 -1.2379,-0.7937 -1.1294,-1.5281 0.1119,-0.7308 0.7972,-1.2343 1.5281,-1.126 1.0212,0.1537 1.9686,-0.0978 2.6749,-0.7062 0.7239,-0.6228 1.1224,-1.5526 1.1224,-2.6226 0.0003,-2.3324 -1.9232,-4.5981 -4.196,-4.9442l-60.9746 -9.2281c-1.018,-0.1538 -1.9694,0.0947 -2.6757,0.7066 -0.7238,0.6222 -1.1224,1.5525 -1.1224,2.6191 0.0005,2.3354 1.9232,4.6015 4.1961,4.9443 0.7349,0.1117 1.2378,0.7971 1.1293,1.5316 -0.1119,0.7307 -0.7973,1.2342 -1.528,1.1259 -3.5766,-0.5423 -6.4828,-3.9514 -6.4828,-7.6018 0.0006,-1.8604 0.7307,-3.5142 2.056,-4.6577 1.3112,-1.1262 3.0247,-1.5979 4.8255,-1.3252l60.9753 9.2309c3.5774,0.5421 6.4828,3.9517 6.4828,7.5986 0,1.8638 -0.7308,3.5178 -2.0561,4.6612 -1.0665,0.916 -2.4022,1.3987 -3.8351,1.3983z"/><path class="fil0" d="M55.4318 122.515c-0.7939,0 -1.5252,0.2588 -2.0952,0.7518 -0.7238,0.6223 -1.1224,1.5525 -1.1224,2.619 0.0005,2.3355 1.9232,4.6016 4.1961,4.9444l60.9753 9.231c1.018,0.1538 1.9686,-0.0977 2.6749,-0.7061 0.7239,-0.6227 1.1224,-1.5526 1.1224,-2.6225 0.0003,-2.336 -1.9232,-4.5982 -4.196,-4.9444l-60.9746 -9.2279c-0.1958,-0.0315 -0.3923,-0.0453 -0.5805,-0.0453zm62.5454 20.277c-0.3257,0 -0.6581,-0.0242 -0.9903,-0.0766l-60.9746 -9.2279c-3.5773,-0.542 -6.4835,-3.9512 -6.4835,-7.6017 0.0006,-1.8606 0.7307,-3.5141 2.056,-4.6577 1.3112,-1.1261 3.0247,-1.5979 4.8255,-1.3251l0.0002 0 60.9751 9.2309c3.5774,0.5421 6.4828,3.9515 6.4828,7.5987 0,1.8637 -0.7308,3.5176 -2.0561,4.6609 -1.0665,0.9163 -2.4022,1.3988 -3.8351,1.3985z"/><path class="fil0" d="M79.5238 49.6124c-0.2935,0 -0.5914,-0.0943 -0.8397,-0.2936 -1.2373,-0.9932 -2.3846,-2.0945 -3.4127,-3.2694 -3.1219,-3.5772 -5.2275,-7.9655 -5.9269,-12.3607 -0.342,-2.1473 -0.3392,-4.1926 0.0105,-6.0773 0.3815,-2.0422 1.1679,-3.7765 2.2764,-5.0178 1.0846,-1.21 2.5526,-1.9931 4.2519,-2.2623 1.1889,-0.1892 2.5281,-0.1503 3.9827,0.1189 0.9654,0.1781 1.9442,-0.0316 2.7554,-0.591 0.8117,-0.5597 1.3532,-1.3986 1.5316,-2.3672 0.1755,-0.9686 -0.035,-1.9477 -0.5945,-2.7589 -0.5557,-0.8079 -1.3987,-1.3533 -2.3672,-1.5316 -2.2687,-0.42 -4.4409,-0.4685 -6.4619,-0.1469 -3.4336,0.5452 -6.322,2.1051 -8.5809,4.6297 -2.0169,2.2552 -3.4162,5.2311 -4.0422,8.6053 -0.4993,2.696 -0.514,5.5738 -0.0385,8.5565 0.5706,3.5699 1.8568,7.2031 3.7311,10.5075 0.3642,0.6468 0.1363,1.4651 -0.5072,1.8323 -0.6462,0.3635 -1.465,0.1364 -1.8322,-0.507 -2.028,-3.5809 -3.4266,-7.5285 -4.0421,-11.4132 -0.5239,-3.2838 -0.5071,-6.4689 0.0489,-9.4656 0.7174,-3.8571 2.3323,-7.2836 4.6786,-9.9061 2.6861,-3.0003 6.1018,-4.8464 10.1614,-5.4933 2.3253,-0.3672 4.8045,-0.3147 7.371,0.1608 1.6717,0.3074 3.126,1.2484 4.0946,2.647 0.9657,1.4019 1.3288,3.0946 1.021,4.766 -0.3071,1.6747 -1.2448,3.1296 -2.6469,4.0947 -1.3981,0.965 -3.0946,1.3287 -4.766,1.0245 -1.1536,-0.2137 -2.189,-0.2518 -3.0737,-0.1119 -1.0978,0.1747 -1.9966,0.6468 -2.6714,1.4021 -0.7828,0.874 -1.3497,2.161 -1.6399,3.717 -0.29,1.5802 -0.2902,3.3219 0.0035,5.1681 0.6191,3.8984 2.5001,7.8117 5.2975,11.0111 0.9233,1.0594 1.9581,2.0491 3.0701,2.9442 0.577,0.4648 0.6712,1.3113 0.2063,1.8883 -0.2651,0.3286 -0.6539,0.5 -1.0486,0.4998z"/><path class="fil0" d="M92.1394 138.956c-0.4091,2.8359 -0.3741,5.5774 0.1013,8.151 0.6265,3.3743 2.0213,6.3465 4.0423,8.6019 2.259,2.5277 5.147,4.0876 8.5809,4.6331 2.0216,0.3214 4.1925,0.2692 6.4584,-0.1504 0.9721,-0.1749 1.8113,-0.7203 2.3707,-1.5316 0.5597,-0.8077 0.7693,-1.7868 0.5944,-2.7553 -0.1779,-0.9689 -0.7237,-1.8078 -1.5316,-2.3673 -0.8106,-0.5594 -1.7901,-0.7727 -2.7587,-0.5944 -1.4507,0.2691 -2.7904,0.3112 -3.9793,0.1224 -1.6994,-0.2695 -3.168,-1.0526 -4.252,-2.2624 -1.1082,-1.2415 -1.8987,-2.9757 -2.2763,-5.0213 -0.3283,-1.7763 -0.3498,-3.7029 -0.063,-5.724l-7.2871 -1.1017zm15.4275 24.2808c-1.066,0 -2.112,-0.0799 -3.1261,-0.2443 -4.0562,-0.6435 -7.476,-2.4931 -10.1614,-5.4933 -2.3461,-2.6193 -3.9652,-6.0458 -4.6786,-9.9027 -0.5558,-2.9967 -0.5734,-6.1821 -0.049,-9.469 0.0495,-0.315 0.105,-0.6329 0.1644,-0.9476 0.1369,-0.71 0.8008,-1.1855 1.5211,-1.077l9.9522 1.507c0.3634,0.0559 0.6883,0.2589 0.898,0.5596 0.2136,0.3038 0.2866,0.6818 0.2133,1.0419 -0.0627,0.304 -0.1189,0.612 -0.1678,0.9162 -0.2969,1.846 -0.2973,3.5841 -0.0035,5.1647 0.2904,1.5592 0.8566,2.8463 1.6399,3.7204 0.6756,0.7549 1.5735,1.2273 2.668,1.4021 0.8887,0.1396 1.9197,0.1014 3.0736,-0.1119 0.0007,-0.0003 0,0 0.0035,0 1.6714,-0.3079 3.3638,0.056 4.766,1.0246 1.3987,0.9648 2.3393,2.4197 2.647,4.0946 0.3078,1.6714 -0.056,3.3638 -1.0246,4.7661 -0.965,1.3984 -2.4197,2.3393 -4.0946,2.6469 -1.4437,0.2657 -2.8603,0.4021 -4.2414,0.4017z"/></g></g><rect class="fil1" width="173.397" height="173.397"/><text x="0" y="188.397" fill="#000000" font-size="5px" font-weight="bold" font-family="'Helvetica Neue', Helvetica, Arial-Unicode, Arial, Sans-serif">Created by Muhammad Atiq</text><text x="0" y="193.397" fill="#000000" font-size="5px" font-weight="bold" font-family="'Helvetica Neue', Helvetica, Arial-Unicode, Arial, Sans-serif">from the Noun Project</text></svg>